# Blender v2.77 (sub 0) OBJ File: ''
# www.blender.org
mtllib BubLLeg.mtl
o bubsy_lleg_ID5
v 2.324797 -0.185674 4.253885
v 3.162081 -0.082983 3.044716
v 2.470616 1.161126 2.697747
v 0.683653 -0.186387 4.255565
v -0.095093 -0.093986 2.967534
v 2.217689 1.571676 -0.728214
v 0.554492 1.158987 2.698153
v -0.101595 0.057199 -0.959524
v 3.171970 0.060051 -0.953408
v 1.696355 1.811787 0.248333
v 1.052339 1.951681 0.286674
v 0.351856 1.570249 0.393735
v 1.496966 1.246755 -1.455887
v 1.667881 1.790658 -0.614495
v 1.014055 1.764060 -0.634498
v 1.499226 0.117815 -2.020665
v 1.702725 3.380860 0.194267
v 1.039407 3.293459 0.274571
v 1.595453 3.103878 -0.579489
v 1.588191 3.751954 -0.584200
v 1.401292 5.276833 0.346974
v 1.073296 3.131348 -0.552818
v 1.712408 5.467127 -0.394385
v 1.676671 5.479665 0.165275
v 0.995008 5.149904 0.271237
v 1.057817 3.660647 -0.538105
v 1.424925 5.426231 -0.591738
v 0.995008 5.238156 -0.414171
vt 153.5652 -6.4676
vt 153.6248 -6.4276
vt 153.5842 -6.3690
vt 153.6081 -6.4915
vt 153.7015 -6.4912
vt 153.7096 -6.3740
vt 239.2551 104.5815
vt 239.2540 104.5828
vt 239.2537 104.5821
vt 239.6344 104.7006
vt 239.6536 104.6748
vt 239.6455 104.6998
vt 153.6005 -6.3743
vt 239.2538 104.5820
vt 239.2543 104.5813
vt 239.2567 104.5827
vt 239.2540 104.5829
vt 239.2550 104.5816
vt 239.6484 104.7300
vt 239.6357 104.7023
vt 239.6486 104.6978
vt 239.6377 104.6901
vt 239.6313 104.7092
vt 239.6330 104.6829
vt 153.6285 -6.2297
vt 153.5444 -6.4339
vt 239.6445 104.6645
vt 239.6569 104.6845
vt 239.6446 104.6945
vt 239.2567 104.5828
vt 239.2556 104.5841
vt 239.6486 104.6976
vt 239.6356 104.7021
vt 239.6461 104.6898
vt 239.6375 104.6835
vt 153.6661 -6.2295
vt 239.6550 104.6839
vt 239.6506 104.6665
vt 239.6611 104.6832
vt 153.5392 -6.4356
vt 153.5971 -6.3777
vt 153.5349 -6.2592
vt 239.6603 104.6934
vt 239.2566 104.5828
vt 239.2565 104.5838
vt 239.2555 104.5841
vt 239.6369 104.6870
vt 239.6521 104.6947
vt 239.6587 104.6750
vt 239.6589 104.6684
vt 239.6706 104.6752
vt 239.6698 104.6803
vt 239.6596 104.6799
vt 239.6539 104.6854
vt 239.6594 104.6880
vt 239.6565 104.6945
vt 239.6586 104.7015
vt 239.6666 104.6919
vt 239.6599 104.6988
vt 239.6519 104.6865
vt 239.6476 104.6951
vt 239.6478 104.7000
vt 239.6402 104.6987
vt 239.6694 104.6914
vt 239.6575 104.6849
vt 239.6675 104.6854
vt 239.6704 104.6752
vt 239.6696 104.6802
vt 239.6585 104.6749
vt 239.6599 104.6858
vt 239.6701 104.6862
vt 239.6582 104.6928
vt 239.6578 104.6800
vt 239.6709 104.6916
vt 239.6689 104.6856
vt 239.6739 104.6857
vt 239.6850 104.6781
vt 239.6699 104.6862
vt 239.6685 104.6924
vt 239.6581 104.6927
vt 239.6686 104.6925
vt 239.6687 104.6965
vt 239.6869 104.6877
vt 239.6727 104.7005
vt 239.6678 104.7004
vt 239.6681 104.6964
vt 239.6863 104.6783
vt 239.6847 104.6808
vt 239.6703 104.6778
vt 239.6849 104.6773
vt 239.6839 104.6805
vt 239.6698 104.6797
vt 239.6727 104.6925
vt 239.6867 104.6851
vt 239.6868 104.6920
vt 239.6725 104.7004
vt 239.6679 104.6963
vt 239.6719 104.6963
vt 239.6699 104.6798
vt 239.6841 104.6805
vt 239.6724 104.6861
vt 239.6855 104.7002
vt 239.6727 104.7011
vt 239.6721 104.6970
vt 239.6837 104.6913
vt 239.6842 104.6966
vt 239.6853 104.7001
vt 239.6719 104.6970
vt 239.6840 104.6965
vn 0.3619 -0.3411 0.8675
vn 0.8667 -0.4234 0.2635
vn 0.4904 0.7951 0.3568
vn -0.3791 -0.3356 0.8623
vn -0.8436 -0.4668 0.2653
vn 0.5875 0.7336 -0.3415
vn -0.4584 0.7819 0.4224
vn -0.7814 -0.4233 -0.4584
vn 0.8239 -0.3898 -0.4113
vn 0.5990 0.7378 0.3110
vn -0.5040 0.7526 0.4236
vn -0.7520 0.6583 -0.0315
vn -0.0230 0.5955 -0.8030
vn 0.4348 0.6959 -0.5715
vn -0.5862 0.5255 -0.6166
vn -0.0063 -0.3968 -0.9179
vn 0.7982 -0.0070 0.6024
vn -0.6812 -0.0094 0.7320
vn 0.6341 0.0425 -0.7721
vn 0.6103 -0.0185 -0.7920
vn 0.2830 0.0040 0.9591
vn -0.7078 0.0323 -0.7056
vn 0.9139 0.0242 -0.4051
vn 0.9104 0.0170 0.4133
vn -0.7506 -0.0236 0.6603
vn -0.7302 -0.0091 -0.6832
vn 0.1850 0.0515 -0.9814
vn -0.7958 0.0158 -0.6053
usemtl __auto_
s 1
f 1/1/1 2/2/2 3/3/3
f 4/4/4 1/5/1 3/6/3
f 5/7/5 2/8/2 1/9/1
f 2/10/2 6/11/6 3/12/3
f 7/13/7 4/4/4 3/6/3
f 5/7/5 1/14/1 4/15/4
f 8/16/8 2/17/2 5/18/5
f 2/19/2 9/20/9 6/21/6
f 10/22/10 3/23/3 6/24/6
f 7/13/7 3/6/3 11/25/11
f 4/4/4 7/13/7 5/26/5
f 5/27/5 12/28/12 8/29/8
f 8/30/8 9/31/9 2/17/2
f 6/32/6 9/33/9 13/34/13
f 14/35/14 10/22/10 6/24/6
f 11/25/11 3/6/3 10/36/10
f 12/37/12 7/38/7 11/39/11
f 5/40/5 7/41/7 12/42/12
f 12/28/12 15/43/15 8/29/8
f 8/44/8 16/45/16 9/46/9
f 13/34/13 9/33/9 16/47/16
f 13/34/13 14/48/14 6/32/6
f 10/49/10 14/50/14 17/51/17
f 18/52/18 11/53/11 10/49/10
f 12/54/12 11/55/11 15/56/15
f 15/43/15 13/57/13 8/29/8
f 13/58/13 16/59/16 8/60/8
f 15/61/15 14/62/14 13/63/13
f 17/64/17 14/65/14 19/66/19
f 17/67/17 18/68/18 10/69/10
f 11/70/11 18/71/18 15/72/15
f 19/66/19 14/65/14 15/73/15
f 17/74/17 19/75/19 20/76/20
f 21/77/21 18/52/18 17/51/17
f 18/78/18 22/79/22 15/80/15
f 22/81/22 19/82/19 15/72/15
f 17/74/17 20/76/20 23/83/23
f 20/84/20 19/85/19 22/86/22
f 24/87/24 21/88/21 17/89/17
f 21/90/21 25/91/25 18/92/18
f 18/71/18 26/93/26 22/81/22
f 23/83/23 20/76/20 27/94/27
f 17/74/17 23/83/23 24/95/24
f 20/96/20 22/97/22 26/98/26
f 18/99/18 25/100/25 26/101/26
f 27/102/27 20/103/20 26/104/26
f 25/105/25 28/106/28 26/104/26
f 27/107/27 26/108/26 28/109/28
