# Blender v2.77 (sub 0) OBJ File: ''
# www.blender.org
mtllib BubNeck.mtl
o group_0_ID28
v -0.668537 12.933564 0.028173
v -0.000001 12.933564 -0.957327
v -0.668537 10.819374 0.028173
v -0.000001 10.819374 -0.957327
v 0.668536 10.819374 0.028173
v 0.668536 12.933564 0.028173
vt 239.6667 104.7448
vt 239.6667 104.7438
vt 239.6648 104.7448
vt 239.6649 104.7437
vt 239.6649 104.7436
vt 239.6648 104.7448
vt 239.6667 104.7436
vt 239.6667 104.7448
vn -0.8835 0.0000 0.4683
vn 0.0000 0.0000 -1.0000
vn 0.8835 0.0000 0.4683
usemtl __auto_
s 1
f 1/1/1 2/2/2 3/3/1
f 3/3/1 2/2/2 4/4/2
f 1/1/1 3/3/1 5/5/3
f 5/6/3 4/4/2 2/2/2
f 1/1/1 5/5/3 6/7/3
f 5/6/3 2/2/2 6/8/3
