# Blender v2.77 (sub 0) OBJ File: ''
# www.blender.org
mtllib BubTail.mtl
o bubsy_tail_ID55
v -0.180011 6.434601 -1.022206
v 0.376386 5.943399 -1.022206
v 0.000001 6.959448 -2.973845
v -0.180011 5.452202 -1.022206
vt 239.5647 104.6437
vt 239.5700 104.6482
vt 239.5397 104.6510
vt 239.5727 104.6579
vt 239.5644 104.6311
vn -0.5180 0.8368 0.1773
vn 0.9424 -0.1854 -0.2783
vn -0.0021 0.4499 -0.8930
vn -0.2750 -0.7485 -0.6034
usemtl __auto_
s 1
f 1/1/1 2/2/2 3/3/3
f 4/4/4 3/3/3 2/2/2
f 1/1/1 3/3/3 4/5/4
