# Blender v2.78 (sub 0) OBJ File: ''
# www.blender.org
mtllib Triangle.mtl
o Plane
v -7.032397 -4.723136 0.657382
v 7.028726 -4.739733 0.657382
v 0.000678 9.332884 0.657384
v 0.000678 9.332884 -0.691189
v 7.028726 -4.739733 -0.691191
v -7.032397 -4.723135 -0.691191
vn 0.0000 -0.0000 1.0000
vn -0.0012 -1.0000 -0.0000
vn 0.0000 0.0000 -1.0000
vn -0.8943 0.4475 0.0000
vn 0.8946 0.4468 0.0000
usemtl None
s off
f 2//1 3//1 1//1
f 2//2 1//2 6//2 5//2
f 5//3 6//3 4//3
f 1//4 3//4 4//4 6//4
f 3//5 2//5 5//5 4//5
